<svg version="1.0" viewBox="0 0 32 32" xmlns="http://www.w3.org/2000/svg"><path d="M11.306.854C6.32 2.432 2.431 6.38.9 11.433c-2.592 8.368 2.12 17.21 10.524 19.816 8.325 2.605 17.122-2.132 19.714-10.58C34.868 8.551 23.323-2.975 11.306.854zm10.76 8.842c1.768 7.105-2.238 13.184-8.443 12.79l-1.924-.12 1.61-.868c1.61-.868 4.045-3.276 4.909-4.934.314-.552-.275-.197-1.65 1.027-2.199 1.973-5.811 3.947-8.168 4.42-1.02.237-1.295.158-1.138-.276.078-.276.589-.631 1.138-.75.864-.237.943-.394.825-2.487-.118-1.697.04-2.684.668-3.908.981-2.013 2.395-3 6.322-4.42 1.571-.593 3.338-1.382 3.888-1.816.55-.395 1.139-.632 1.257-.553.157.079.47.947.706 1.895z"/></svg>