<svg viewBox="0 0 32 32" xmlns="http://www.w3.org/2000/svg"><path d="M11.261.877A15.934 15.934 0 00.793 11.44c-2.607 8.357 2.133 17.186 10.587 19.788 8.375 2.601 17.224-2.129 19.83-10.564C34.965 8.563 23.35-2.946 11.262.877zm-.948 11.036c.79.434 1.027 2.484.395 3.508-.237.395-.197.868.198 1.38.79 1.143.671 2.877-.237 3.784-.593.591-1.304.788-2.765.788H5.928V11.52h1.818c.987 0 2.133.197 2.567.394zm5.926 2.444c1.106 4.375 1.185 4.415 2.094.71.83-3.272.908-3.35 2.133-3.469l1.264-.118v4.927c0 4.69-.04 4.966-.79 4.966-.711 0-.79-.315-.87-3.665l-.118-3.627-.948 3.627c-.71 2.916-1.066 3.665-1.62 3.665s-.908-.749-1.62-3.665l-.947-3.627-.119 3.627c-.079 3.35-.158 3.665-.869 3.665-.75 0-.79-.276-.79-4.966V11.48l1.264.118c1.185.118 1.304.236 1.936 2.76zm9.046 2.09c0 4.65-.04 4.926-.79 4.926s-.79-.276-.79-4.927.04-4.927.79-4.927.79.276.79 4.927z"/><path d="M7.508 14.081c0 1.104.159 1.38.79 1.38.988 0 1.62-1.183 1.146-2.09-.237-.354-.75-.67-1.145-.67-.632 0-.79.277-.79 1.38zM7.508 18.26c0 1.497.04 1.576 1.107 1.458 1.343-.158 1.738-1.774.632-2.562-1.264-.907-1.739-.63-1.739 1.103z"/></svg>