<svg version="1.0" viewBox="0 0 32 32" xmlns="http://www.w3.org/2000/svg"><path d="M12.113.337C7.609 1.49 3.394 4.99 1.328 9.399c-1.157 2.389-1.28 3.089-1.28 6.59s.123 4.202 1.28 6.59c1.611 3.42 4.587 6.385 8.016 7.992 2.397 1.153 3.1 1.277 6.611 1.277s4.215-.124 6.611-1.277c3.43-1.607 6.405-4.572 8.017-7.991 1.157-2.39 1.28-3.09 1.28-6.59 0-3.502-.123-4.202-1.28-6.591-2.604-5.52-7.769-9.021-13.718-9.31-1.736-.082-3.884.042-4.752.248zm5.702 4.695c1.24 1.854-.537 4.037-2.727 3.337-2.272-.742-1.57-4.325.868-4.325.826 0 1.446.33 1.86.988zm3.512 6.261c1.157 1.071 2.066 2.101 2.066 2.307 0 .783-2.19 3.213-2.892 3.213-1.116 0-1.24-.906-.29-1.936.827-.906.827-.947.083-1.771-.413-.453-.909-.824-1.074-.824-.206 0-.413 3.46-.454 7.703-.124 7.414-.166 7.744-.95 7.744-.745 0-.827-.33-1.034-4.12-.165-3.295-.33-4.119-.826-4.119s-.661.824-.827 4.12c-.206 3.79-.289 4.119-1.033 4.119-.785 0-.826-.33-.95-7.744-.041-4.243-.248-7.703-.454-7.703-.166 0-.662.37-1.075.824-.744.824-.744.865.083 1.771.95 1.03.826 1.936-.29 1.936-.702 0-2.892-2.43-2.892-3.213 0-.206.91-1.236 2.066-2.307L12.61 9.4h6.694z"/></svg>