<svg viewBox="0 0 32 32" xmlns="http://www.w3.org/2000/svg"><path d="M11.261.877A15.935 15.935 0 00.792 11.44c-2.607 8.356 2.133 17.186 10.587 19.788C19.754 33.83 28.603 29.1 31.21 20.665 34.963 8.564 23.349-2.946 11.26.877zm9.086 6.504c1.185 1.143 1.343 3.508.356 4.572-.554.63-.593.946-.119 2.68.553 2.208.553 2.287-.79 2.484-.83.118-1.027-.119-1.462-1.695-.434-1.42-.83-1.892-1.896-2.444-1.62-.749-2.33-2.562-1.699-4.336.79-2.326 3.872-3.035 5.61-1.261zm-6.084 5.36c.356.71.237 1.025-.987 2.287-1.027 1.064-1.422 1.773-1.422 2.759 0 3.666-3.477 5.321-5.966 2.838-1.224-1.222-1.382-2.09-.75-3.745.474-1.261 2.489-2.325 3.871-2.01.909.197 1.343-.04 2.647-1.38.83-.867 1.66-1.576 1.857-1.576.158 0 .474.354.75.827zm9.126 6.662c1.027 1.064 1.185 1.419.987 2.64-.355 2.05-1.5 3.076-3.476 3.076-1.304 0-1.817-.237-2.568-1.104-.513-.63-.948-1.34-.948-1.616 0-.237-1.027-.71-2.252-1.065-2.054-.512-2.29-.67-2.172-1.497.04-.552.158-1.065.276-1.144.08-.118 1.225.08 2.489.395 2.173.551 2.37.551 3.2-.158 1.382-1.104 3.042-.907 4.464.473z"/></svg>