<svg version="1.0" viewBox="0 0 32 32" xmlns="http://www.w3.org/2000/svg"><path d="M12.15.337c-4.518 1.157-8.745 4.67-10.818 9.09C.172 11.824.047 12.526.047 16.038c0 3.512.124 4.214 1.285 6.61 1.616 3.43 4.6 6.405 8.04 8.016 2.405 1.157 3.11 1.281 6.632 1.281 3.523 0 4.228-.124 6.632-1.28 3.44-1.612 6.424-4.587 8.04-8.016 1.16-2.397 1.285-3.099 1.285-6.611 0-3.512-.124-4.214-1.285-6.61-2.61-5.537-7.792-9.05-13.76-9.339-1.74-.082-3.896.042-4.766.248zM23.506 8.56c3.73 3.718 3.15 5.908-1.74 6.817-3.317.578-6.176 3.76-6.715 7.479-.29 1.859-1.534 3.098-3.067 3.098-1.368 0-5.927-4.503-5.927-5.867 0-1.735 1.077-2.727 3.481-3.223 4.104-.826 6.798-3.635 7.42-7.643.165-.95.621-1.942 1.16-2.397 1.575-1.28 2.735-.909 5.388 1.736z"/></svg>