<svg version="1.0" viewBox="0 0 32 32" xmlns="http://www.w3.org/2000/svg"><path d="M12.173.433c-4.49 1.15-8.692 4.64-10.752 9.035-1.153 2.381-1.277 3.08-1.277 6.57s.124 4.188 1.277 6.57c1.606 3.409 4.572 6.365 7.991 7.967 2.39 1.15 3.09 1.273 6.591 1.273 3.502 0 4.202-.124 6.591-1.273 3.42-1.602 6.385-4.559 7.992-7.967 1.153-2.382 1.277-3.08 1.277-6.57s-.124-4.189-1.277-6.57C27.991 3.965 22.842.474 16.91.187c-1.73-.082-3.872.041-4.737.246zm8.61 7.597c1.153.575 2.595 1.602 3.254 2.259l1.236 1.273-.866 2.34-.823 2.341-2.554.123-2.513.124-.948-1.972c-.535-1.067-1.235-1.97-1.565-1.97-.33 0-1.03.903-1.565 1.97l-.948 1.972-2.513-.124-2.554-.123-.824-2.34-.865-2.341 1.236-1.273c2.019-2.095 4.902-3.285 8.033-3.285 2.06 0 3.213.246 4.778 1.026zm-3.996 7.474c1.936 7.392 1.936 7.925.37 8.788-1.153.616-2.76.123-3.254-.986-.412-.944-.33-1.478 1.318-7.802.206-.821.577-1.52.783-1.52.206 0 .577.699.783 1.52z"/></svg>