<svg version="1.0" viewBox="0 0 32 32" xmlns="http://www.w3.org/2000/svg"><path d="M12.21.434C7.706 1.587 3.491 5.09 1.425 9.496c-1.157 2.39-1.28 3.09-1.28 6.59 0 3.502.123 4.202 1.28 6.591 1.612 3.42 4.587 6.385 8.016 7.991 2.397 1.154 3.1 1.277 6.611 1.277s4.215-.123 6.612-1.277c3.43-1.606 6.404-4.572 8.016-7.99 1.157-2.39 1.28-3.09 1.28-6.591 0-3.501-.123-4.202-1.28-6.59C28.076 3.976 22.91.474 16.962.186c-1.736-.082-3.884.041-4.752.247zm5.66 3.954c.827.824.827 2.39 0 3.213-1.363 1.4-4.296.33-4.296-1.524 0-2.018 2.892-3.13 4.297-1.689zm1.654 6.138c.785.824 1.446 3.172 1.57 5.767.083 1.606 0 2.06-.579 2.183-.495.082-.785-.33-1.115-1.648l-.413-1.771.165 2.06c.29 3.418.33 10.38.041 10.874-.454.659-1.777.535-2.066-.206-.124-.371-.248-1.36-.248-2.183 0-2.637-.496-6.632-.826-6.632-.207 0-.455 1.812-.62 3.995-.165 2.225-.372 4.366-.454 4.737-.248.865-2.025 1.03-2.356.206-.082-.288-.041-3.09.124-6.26.166-3.173.248-5.809.207-5.891-.041-.082-.248.535-.372 1.36-.207 1.111-.496 1.44-.992 1.358-.578-.123-.66-.535-.578-2.183.124-2.595.785-4.943 1.57-5.766.454-.412 1.446-.618 3.47-.618 2.026 0 3.017.206 3.472.618z"/></svg>