<svg version="1.0" viewBox="0 0 32 32" xmlns="http://www.w3.org/2000/svg"><path d="M12.113.433c-4.504 1.15-8.719 4.64-10.785 9.035-1.157 2.381-1.28 3.08-1.28 6.57s.123 4.188 1.28 6.57c1.611 3.409 4.587 6.365 8.016 7.967 2.397 1.15 3.1 1.273 6.611 1.273 3.512 0 4.215-.124 6.611-1.273 3.43-1.602 6.405-4.559 8.017-7.967 1.157-2.382 1.28-3.08 1.28-6.57s-.123-4.189-1.28-6.57C27.979 3.965 22.814.474 16.865.187c-1.736-.082-3.884.041-4.752.246zm3.058 7.105c.785.492 1.446 1.314 1.529 1.806.165 1.027-1.281 2.177-2.686 2.177-1.736 0-2.355 5.092-.661 5.626.248.082.785-.37 1.198-1.068.372-.657 1.157-1.437 1.694-1.725 1.364-.739 3.636-.657 4.545.123.413.37 1.405.74 2.19.822l1.446.123.124 2.669c.166 3.737-.124 4.065-4.669 4.517-4.008.41-8.305 0-10.743-.985-1.115-.493-1.446-.904-1.694-2.095-.372-2.135.124-5.667 1.116-7.802.785-1.684 4.05-5.133 4.834-5.133.207 0 .992.41 1.777.944z"/></svg>