<svg version="1.0" viewBox="0 0 32 32" xmlns="http://www.w3.org/2000/svg"><path d="M12.21.433c-4.503 1.15-8.718 4.64-10.784 9.034C.269 11.85.145 12.547.145 16.037s.124 4.19 1.28 6.571c1.612 3.408 4.587 6.365 8.017 7.967 2.397 1.15 3.099 1.273 6.611 1.273s4.215-.123 6.611-1.273c3.43-1.602 6.405-4.559 8.016-7.967 1.157-2.382 1.281-3.08 1.281-6.57s-.124-4.189-1.28-6.57C28.076 3.964 22.911.473 16.961.186c-1.735-.083-3.884.04-4.752.246zm6.198 7.802c3.554 2.136 5.33 8.542 3.471 12.566-1.157 2.505-3.016 3.655-5.908 3.655-3.926 0-6.198-2.3-6.446-6.53-.29-4.106 1.405-8.048 4.173-9.69 1.694-1.027 3.016-1.027 4.71 0z"/><path d="M16.714 10.248c-.165.205.207 1.067.785 1.93s1.157 1.97 1.281 2.505c.248.985 1.405 1.355 1.405.41-.041-1.725-2.892-5.79-3.47-4.845z"/></svg>