<svg version="1.0" viewBox="0 0 32 32" xmlns="http://www.w3.org/2000/svg"><path d="M12.21.337C7.706 1.49 3.491 4.99 1.425 9.399c-1.157 2.389-1.28 3.089-1.28 6.59s.123 4.202 1.28 6.59c1.612 3.42 4.587 6.385 8.016 7.992 2.397 1.153 3.1 1.277 6.611 1.277 3.513 0 4.215-.124 6.612-1.277 3.43-1.607 6.404-4.572 8.016-7.991 1.157-2.39 1.28-3.09 1.28-6.59 0-3.502-.123-4.202-1.28-6.591C28.076 3.879 22.91.378 16.962.089c-1.736-.082-3.884.042-4.752.248zm2.438 6.343a22.153 22.153 0 01-.496 1.689c-.248.659-.207.659 1.074 0 1.736-.906 4.422-.66 6.116.576 1.653 1.154 3.388 4.696 3.388 6.797 0 1.977-1.529 5.396-2.934 6.714-1.322 1.195-3.718 2.183-5.33 2.183-1.694 0-3.884-.947-5.165-2.224-1.198-1.195-1.653-.783-1.28 1.236.288 1.318.247 1.4-.91 1.4-1.363 0-1.735-.577-1.735-2.719 0-1.853 1.446-3.295 3.553-3.666 2.562-.453 3.471-1.235 3.471-2.924 0-1.607-.455-2.678-1.694-3.913-1.074-1.071-1.364-2.678-.827-4.531.414-1.4.62-1.607 1.736-1.607 1.157 0 1.28.124 1.033.989z"/></svg>