<svg version="1.0" viewBox="0 0 32 32" xmlns="http://www.w3.org/2000/svg"><path d="M12.174.433c-4.49 1.15-8.692 4.64-10.752 9.034C.269 11.85.145 12.547.145 16.037s.124 4.19 1.277 6.571c1.607 3.408 4.573 6.365 7.992 7.967 2.389 1.15 3.09 1.273 6.59 1.273s4.202-.123 6.592-1.273c3.419-1.602 6.385-4.559 7.991-7.967 1.154-2.382 1.277-3.08 1.277-6.57s-.123-4.189-1.277-6.57C27.992 3.964 22.843.473 16.911.186c-1.73-.083-3.872.04-4.737.246zm6.096 8.295c2.637 3.039 4.326 6.53 4.326 9.034 0 2.464-.783 4.025-2.76 5.544-1.236.945-1.895 1.15-3.831 1.15s-2.596-.205-3.831-1.15c-3.09-2.34-3.625-5.831-1.525-9.979 1.195-2.381 4.655-6.734 5.356-6.734.206 0 1.194.985 2.265 2.135z"/><path d="M19.589 16.736c-.165.123-.289.575-.289.985s-.577 1.397-1.236 2.177c-.824.903-1.112 1.52-.824 1.683.7.411 2.802-1.765 3.131-3.162.247-1.19-.247-2.258-.782-1.683z"/></svg>